<svg xmlns="http://www.w3.org/2000/svg" xmlns:xlink="http://www.w3.org/1999/xlink" width="589.854" height="540" viewBox="0 0 589.854 540"><defs><style>.a{fill:url(#a);}.b{fill:#e38ddd;}.c{fill:#8f76ed;}.d{fill:#5181db;}.e{fill:#fff;}.ae,.as,.f,.g,.i,.l,.o,.q,.z{fill:none;}.f{stroke:#9ec0ff;}.ae,.as,.f,.g,.i,.l,.o,.z{stroke-miterlimit:10;}.f,.z{stroke-width:0.763px;}.g,.o,.q{stroke:#fff;}.h{stroke:rgba(0,0,0,0);fill:url(#b);}.i{stroke:#3a3f78;}.j{fill:#7f70e5;}.k{fill:#89a4d9;}.l{stroke:#89a4d9;}.l,.o{stroke-width:0.876px;}.m{fill:#2e6adb;}.n{fill:#8b75eb;}.p{fill:#fe8b8c;}.q{stroke-linecap:round;stroke-linejoin:round;stroke-width:0.75px;}.r{fill:#d488e2;}.s{fill:#272b34;}.t{fill:#63636d;}.u{fill:#363a70;}.v{fill:url(#d);}.w{fill:#dedede;}.x{fill:#ababab;}.y{fill:#142f61;}.z{stroke:#141d30;}.aa{fill:#2d3142;}.ab{fill:#496eb5;}.ac{fill:url(#e);}.ad{fill:url(#f);}.ae{stroke:#707070;}.af{fill:#26395e;}.ag{fill:url(#k);}.ah{fill:#f36f56;}.ai{fill:#fd7a61;}.aj{fill:#ff8a8f;}.ak{fill:#272737;}.al{fill:url(#z);}.am{fill:#fe829e;}.an{fill:#ffb6c9;}.ao{fill:#283618;}.ap{fill:#636538;}.aq{fill:#aca238;}.ar{fill:#c74279;}.as{stroke:#b8d0ff;}.at{fill:#b8d0ff;}</style><linearGradient id="a" x1="0.541" y1="0.199" x2="0.342" y2="2.026" gradientUnits="objectBoundingBox"><stop offset="0" stop-color="#d6eafb"/><stop offset="0.995" stop-color="#fff"/><stop offset="1" stop-color="#cce9ff"/></linearGradient><linearGradient id="b" x1="0.73" y1="0.758" x2="-0.115" y2="-0.571" gradientUnits="objectBoundingBox"><stop offset="0" stop-color="#ff9085"/><stop offset="1" stop-color="#fb6fbb"/></linearGradient><linearGradient id="d" x1="-0.252" y1="1.538" x2="1.527" y2="-1.17" gradientUnits="objectBoundingBox"><stop offset="0" stop-color="#471f72"/><stop offset="0.996" stop-color="#444b8c"/><stop offset="1" stop-color="#6165d7"/></linearGradient><linearGradient id="e" x1="-0.252" y1="1.538" x2="1.527" y2="-1.17" gradientUnits="objectBoundingBox"><stop offset="0" stop-color="#fff"/><stop offset="0.996" stop-color="#444b8c"/><stop offset="1" stop-color="#6165d7"/></linearGradient><linearGradient id="f" x1="-0.252" y1="1.538" x2="1.527" y2="-1.17" gradientUnits="objectBoundingBox"><stop offset="0"/><stop offset="0.996" stop-color="#444b8c"/><stop offset="1" stop-color="#6165d7"/></linearGradient><linearGradient id="k" x1="-0.252" y1="1.538" x2="1.527" y2="-1.17" gradientUnits="objectBoundingBox"><stop offset="0" stop-color="#b27bed"/><stop offset="0.996" stop-color="#444b8c"/><stop offset="1" stop-color="#6165d7"/></linearGradient><linearGradient id="z" x1="0.226" y1="0.07" x2="0.913" y2="1.148" gradientUnits="objectBoundingBox"><stop offset="0.004" stop-color="#e38ddd"/><stop offset="1" stop-color="#9571f6"/></linearGradient></defs><g transform="translate(-618.878 -167)"><path class="a" d="M365.594,500.966C339.823,593.448,326.619,711.863,411.44,799s361.936,64.391,462.388-15.634S934.485,519.4,883.06,447.32s-119.189-181.082-245.578-98.6S399.35,379.834,365.594,500.966Z" transform="translate(272.774 -152.186)"/><g transform="translate(686.42 167.909)"><g transform="translate(0 0)"><g transform="translate(256.691 41.866)"><rect class="b" width="76.916" height="52.417"/><path class="c" d="M536.318,259.417l-5.215-3.629-5.215,3.629V240.535h10.429Z" transform="translate(-467.839 -195.52)"/><circle class="d" cx="7.638" cy="7.638" r="7.638" transform="translate(55.626 36.548)"/><circle class="e" cx="7.638" cy="7.638" r="7.638" transform="translate(54.501 49.363) rotate(-80.782)"/><path class="f" d="M536.483,237.752a5.4,5.4,0,1,1-5.4-5.4A5.4,5.4,0,0,1,536.483,237.752Z" transform="translate(-467.819 -194.705)"/><line class="g" x2="62.482" transform="translate(6.183 18.063)"/><line class="g" x2="28.678" transform="translate(23.084 13.21)"/><line class="g" x2="62.482" transform="translate(6.183 22.917)"/><line class="g" x2="62.482" transform="translate(6.183 27.77)"/><line class="g" x2="62.482" transform="translate(6.183 32.624)"/></g><g transform="translate(62.14)"><path class="h" d="M497.584,86.6a41.866,41.866,0,1,0,41.866,41.866A41.866,41.866,0,0,0,497.584,86.6Zm0,76.768a34.9,34.9,0,1,1,34.9-34.9A34.9,34.9,0,0,1,497.584,163.364Z" transform="translate(-455.718 -86.596)"/><g transform="translate(9.624 9.623)"><path class="b" d="M503.447,98.989a1.706,1.706,0,1,1-1.706-1.705A1.706,1.706,0,0,1,503.447,98.989Z" transform="translate(-469.758 -97.284)"/><path class="b" d="M503.447,166.824a1.706,1.706,0,1,1-1.706-1.705A1.706,1.706,0,0,1,503.447,166.824Z" transform="translate(-469.758 -104.044)"/><path class="b" d="M486.326,102.779a1.706,1.706,0,1,1-2.33-.624A1.706,1.706,0,0,1,486.326,102.779Z" transform="translate(-468.075 -97.747)"/><path class="b" d="M520.243,161.525a1.706,1.706,0,1,1-2.33-.624A1.706,1.706,0,0,1,520.243,161.525Z" transform="translate(-471.455 -103.601)"/><path class="b" d="M473.392,114.622a1.706,1.706,0,1,1-2.33.624A1.7,1.7,0,0,1,473.392,114.622Z" transform="translate(-466.848 -98.989)"/><path class="b" d="M532.138,148.539a1.705,1.705,0,1,1-2.33.624A1.7,1.7,0,0,1,532.138,148.539Z" transform="translate(-472.702 -102.369)"/><path class="b" d="M468.112,131.344a1.706,1.706,0,1,1-1.705,1.705A1.705,1.705,0,0,1,468.112,131.344Z" transform="translate(-466.407 -100.678)"/><path class="b" d="M535.946,131.344a1.706,1.706,0,1,1-1.705,1.705A1.706,1.706,0,0,1,535.946,131.344Z" transform="translate(-473.167 -100.678)"/><path class="b" d="M471.9,148.466a1.705,1.705,0,1,1-.625,2.33A1.7,1.7,0,0,1,471.9,148.466Z" transform="translate(-466.869 -102.362)"/><path class="b" d="M530.648,114.549a1.705,1.705,0,1,1-.625,2.33A1.706,1.706,0,0,1,530.648,114.549Z" transform="translate(-472.724 -98.982)"/><path class="b" d="M483.744,161.4a1.705,1.705,0,1,1,.624,2.329A1.706,1.706,0,0,1,483.744,161.4Z" transform="translate(-468.112 -103.588)"/><path class="b" d="M517.661,102.653a1.706,1.706,0,1,1,.624,2.33A1.706,1.706,0,0,1,517.661,102.653Z" transform="translate(-471.492 -97.734)"/></g><path class="i" d="M500.506,103.695v26.471L485.037,140.1" transform="translate(-458.64 -88.3)"/><circle class="j" cx="2.87" cy="2.87" r="2.87" transform="translate(38.996 38.996)"/></g><g transform="translate(379.948 181.136)"><rect class="k" width="111.112" height="4.212" transform="translate(0 49.196)"/><g transform="translate(41.28 0)"><path class="e" d="M79.805,205.018h80.216l11.36-53.408H91.165Z" transform="translate(-79.805 -151.61)"/><line class="l" x1="11.101" y2="52.19" transform="translate(2.894 1.218)"/></g><circle class="m" cx="10.088" cy="10.088" r="10.088" transform="translate(72.577 26.703) rotate(-45)"/></g><g transform="translate(394.576 116.929)"><path class="n" d="M109.431,104.968H62.209a9.258,9.258,0,0,0-9.258,9.258V135.3a9.258,9.258,0,0,0,9.258,9.257H74.892a5.718,5.718,0,0,1,5.526,4.252l5.4,20.366,5.4-20.366a5.718,5.718,0,0,1,5.526-4.252h12.683a9.257,9.257,0,0,0,9.257-9.257V114.226A9.258,9.258,0,0,0,109.431,104.968Z" transform="translate(-52.951 -104.968)"/><g transform="translate(17.299 9.883)"><rect class="o" width="33.515" height="22.22"/><g transform="translate(2.387 2.342)"><path class="o" d="M74.815,118.546l14.37,10.846,14.37-10.846" transform="translate(-74.815 -118.546)"/><line class="o" x2="11.533" y2="8.831" transform="translate(17.208 8.705)"/><line class="o" y1="8.768" x2="11.617" transform="translate(0 8.768)"/></g></g><g transform="translate(11.749 3.468)"><path class="p" d="M78.83,115.235a6.415,6.415,0,1,1-6.415-6.415A6.415,6.415,0,0,1,78.83,115.235Z" transform="translate(-66 -108.82)"/><path class="q" d="M68.829,115.092l3.064,2.627,4.671-3.988" transform="translate(-66.282 -109.309)"/></g></g><g transform="translate(0 108.999)"><path class="c" d="M383.546,78.494l4.857,26.849h44.53l-4.857-26.849Z" transform="translate(-383.546 -69.981)"/><rect class="e" width="43.852" height="35.362" transform="translate(5.003)"/><path class="h" d="M416.583,74.237,411.8,80.253H393.3L389.1,104.919h44.53l5.216-30.682Z" transform="translate(-384.1 -69.557)"/></g><circle class="r" cx="10.088" cy="10.088" r="10.088" transform="translate(37.886 122.072) rotate(-76.782)"/><circle class="m" cx="10.088" cy="10.088" r="10.088" transform="translate(217.538 380.073) rotate(-38.536)"/><g transform="translate(50.733 134.808)"><g transform="translate(92.123 239.769)"><path class="s" d="M325.465,346.67H181.982c-6.335,0-11.23-5.937-10.312-12.568,1.809-13.075,8.187-31.1,8.187-31.1l73.867,4.653,73.866-4.653s6.378,18.021,8.187,31.1C336.694,340.734,331.8,346.67,325.465,346.67Z" transform="translate(-171.559 -303.007)"/></g><g transform="translate(124.383 161.412)"><rect class="s" width="92.102" height="86.569"/></g><g transform="translate(143.834 283.432)"><path class="s" d="M281.523,344.43s-8.765,9.943-30.42,9.963h-.067c-21.655-.02-30.42-9.963-30.42-9.963Z" transform="translate(-220.616 -344.43)"/></g><g transform="translate(138.241 293.395)"><g transform="translate(4.8)"><path class="s" d="M283.194,446.257v6.793h-4.922V449.98a1.566,1.566,0,0,0-1.566-1.566H255.628a1.317,1.317,0,0,0-1.318,1.318v3.318h-5.724v-3.318a1.317,1.317,0,0,0-1.318-1.318H226.352a1.567,1.567,0,0,0-1.567,1.566v3.069h-4.92v-6.793a2.765,2.765,0,0,1,2.765-2.765h25.958v-89.61h5.724v89.61h26.118A2.766,2.766,0,0,1,283.194,446.257Z" transform="translate(-219.864 -353.882)"/></g><g transform="translate(31.037 10.937)"><path class="t" d="M0,0H10.7a0,0,0,0,1,0,0V34.285a3.737,3.737,0,0,1-3.737,3.737H3.737A3.737,3.737,0,0,1,0,34.285V0A0,0,0,0,1,0,0Z"/></g><g transform="translate(0 96.232)"><path class="s" d="M229.966,452.5a7.328,7.328,0,1,1-7.328-7.328A7.327,7.327,0,0,1,229.966,452.5Z" transform="translate(-215.31 -445.177)"/><g transform="translate(3.132 3.132)"><path class="t" d="M222.477,456.542a4.2,4.2,0,1,1,4.2-4.2A4.2,4.2,0,0,1,222.477,456.542Z" transform="translate(-218.281 -448.148)"/></g></g><g transform="translate(29.138 96.232)"><path class="s" d="M257.609,452.5a7.328,7.328,0,1,1-7.328-7.328A7.328,7.328,0,0,1,257.609,452.5Z" transform="translate(-242.953 -445.177)"/><g transform="translate(3.131 3.132)"><path class="t" d="M250.12,456.542a4.2,4.2,0,1,1,4.2-4.2A4.2,4.2,0,0,1,250.12,456.542Z" transform="translate(-245.923 -448.148)"/></g></g><g transform="translate(58.378 96.232)"><path class="s" d="M285.349,452.5a7.328,7.328,0,1,1-7.328-7.328A7.328,7.328,0,0,1,285.349,452.5Z" transform="translate(-270.693 -445.177)"/><g transform="translate(3.132 3.132)"><path class="t" d="M277.86,456.542a4.2,4.2,0,1,1,4.2-4.2A4.2,4.2,0,0,1,277.86,456.542Z" transform="translate(-273.664 -448.148)"/></g></g></g><g transform="translate(144.899 283.431)"><rect class="t" width="58.414" height="0.816" rx="0.291"/></g><path class="u" d="M280.352,266.1l-95.26,19.139,95.26,59.9,95.26-59.9Z" transform="translate(-104.3 -106.116)"/><path class="v" d="M333.287,247.348l-3.419-7.013,18.336-81.249-47.549-14.3H272.219l-47.55,14.3,18.336,81.249-3.419,7.013-18.958,10.388,44.137,31.533a11.528,11.528,0,0,0,17.04-6.875l4.631-17.059,4.631,17.059a11.528,11.528,0,0,0,17.04,6.875l44.137-31.533Z" transform="translate(-110.385 -85.342)"/><path class="w" d="M282.914,147.068h28.379L297.1,215.727Z" transform="translate(-121.051 -85.733)"/><path class="x" d="M283.309,148.98l18.9,65.675-8.543,5.764Z" transform="translate(-121.119 -86.06)"/><path class="e" d="M284.233,140.625h26.133L297.3,153.049Z" transform="translate(-121.277 -84.629)"/><path class="y" d="M310.067,106.478s1.632-6.061,2.8-11.344-1.4-7.77-3.419-8.7c-1.748-9.438-8.213-13.371-14.585-13.373a.575.575,0,0,0-.321,1.052,9.864,9.864,0,0,1,3.407,3.852,24.123,24.123,0,0,0-16.316,2.8c-8.08,4.74-6.6,8.236-2.8,10.412a75.374,75.374,0,0,0,2.409,15.073Z" transform="translate(-119.826 -73.059)"/><path class="z" d="M300.035,229.914a159.307,159.307,0,0,0,7,23.309l-6.41,24.629" transform="translate(-123.983 -99.92)"/><circle class="w" cx="2.603" cy="2.603" r="2.603" transform="translate(173.536 150.506)"/><path class="w" d="M295.783,285.516a2.6,2.6,0,1,1-2.6-2.6A2.6,2.6,0,0,1,295.783,285.516Z" transform="translate(-122.363 -108.995)"/><line class="z" x2="12.509" y2="11.033" transform="translate(164.99 138.23)"/><line class="z" x1="8.857" y2="5.749" transform="translate(165.922 157.11)"/><g transform="translate(135.382 162.92)"><rect class="aa" width="24.863" height="3.419" transform="translate(0.875 0) rotate(14.828)"/><rect class="ab" width="24.863" height="3.419" transform="matrix(-0.967, 0.256, -0.256, -0.967, 81.34, 3.305)"/></g><g transform="translate(59.343 178.257)"><path class="ac" d="M341.323,370.563l18,10.254-3.426,21.623L333.11,388.884Z" transform="translate(-188.99 -302.262)"/><path class="ad" d="M355.7,377.812l1.183,17.075-4.158-3.249-8.282,7.175,8.859,5.85,6.894,18.175,3.033,11.25a2.015,2.015,0,0,0,3.366.9,21.576,21.576,0,0,0,6.353-14.929,88.352,88.352,0,0,0-2.106-22.448l3.24.54,1.2-14.6-3.442-.238A20.383,20.383,0,0,0,355.7,377.812Z" transform="translate(-190.931 -303.482)"/><path class="v" d="M159.748,306.868c3.419-17.682,27.66-24.9,50.658-12.556S317,353.142,317,353.142l-14.141,36.983c-9.121-3.069-10.061-7.266-17.365-9.948-6.022-2.211-7.808.586-17.365-2.678s-12.674-6.831-18.18-8.74c-8.741-3.031-16.876-2.166-24.972-4.912-13.648-4.625-25.391-8.626-31.358-10.705C169.4,344.7,156.329,324.55,159.748,306.868Z" transform="translate(-159.21 -288.15)"/><line class="ae" x1="1.01" y2="10.817" transform="translate(179.393 81.368)"/><path class="ac" d="M253.332,370.563l-18,10.254,3.426,21.623,22.784-13.555Z" transform="translate(-172.246 -302.262)"/><path class="v" d="M407.717,306.868c-3.419-17.682-27.66-24.9-50.658-12.556s-106.6,58.829-106.6,58.829L264.6,390.125c9.121-3.069,10.061-7.266,17.365-9.948,6.022-2.211,7.809.586,17.365-2.678s12.674-6.831,18.181-8.74c8.74-3.031,16.876-2.166,24.971-4.912,13.648-4.625,25.391-8.626,31.358-10.705C398.066,344.7,411.136,324.55,407.717,306.868Z" transform="translate(-174.836 -288.15)"/><path class="ad" d="M237.993,377.812l-1.183,17.075,4.158-3.249,8.282,7.175-8.859,5.85L233.5,422.839l-3.033,11.25a2.015,2.015,0,0,1-3.366.9,21.575,21.575,0,0,1-6.353-14.929,88.353,88.353,0,0,1,2.106-22.448l-3.24.54-1.2-14.6,3.442-.238A20.383,20.383,0,0,1,237.993,377.812Z" transform="translate(-169.348 -303.482)"/><line class="ae" x2="1.01" y2="10.817" transform="translate(53.016 81.368)"/></g><path class="af" d="M225.5,162.039" transform="translate(-111.22 -88.296)"/><g transform="translate(0 73.743)"><path class="ag" d="M125.825,254.18c-4.749-2.606,5.044-25.483,5.044-25.483l8.25,3.554S130.6,256.8,125.825,254.18Z" transform="translate(-93.928 -173.454)"/><path class="ah" d="M136.553,230.243l-18.083-7.789s-8.45-13.765-10.307-12.04l3.109,8.636-8.768.024-10.2-3.147s-7.821,1.6-2.591,5.84,13.43,13.526,23.511,11.117l16.491,13.945Z" transform="translate(-87.912 -169.961)"/><path d="M127.774,272.454c-4.14-2.252,2.233-14.623,2.233-14.623l13.427,5.732S132.33,274.933,127.774,272.454Z" transform="translate(-94.245 -178.443)"/><path class="ag" d="M145.906,235.008l-10.023-3.928s-2.874,20.943-9.789,23.508l19.812,12.47Z" transform="translate(-94.197 -173.862)"/><path class="ag" d="M201.364,292.1a3.54,3.54,0,0,0,.888-1.483c-18.025-5.992-35.128-.632-40.65,11.685C172.349,310.475,192.77,301.3,201.364,292.1Z" transform="translate(-100.277 -183.635)"/><path class="v" d="M208.818,162.039l12.122,53.716L205.9,256.71a30.14,30.14,0,0,1-41.292,16.808l-36.55-17.468s8.857,2.33,18.18-32.865l24.941,10.722,27.038-51.045S198.2,173.849,208.818,162.039Z" transform="translate(-94.534 -162.039)"/><line class="ae" x2="26.638" y2="13.083" transform="translate(43.33 84.424)"/><circle class="ag" cx="1.806" cy="1.806" r="1.806" transform="translate(50.253 80.609)"/><path class="ag" d="M164.447,267.908a1.806,1.806,0,1,1-1.807-1.807A1.807,1.807,0,0,1,164.447,267.908Z" transform="translate(-100.146 -179.859)"/><line class="ae" x2="16.005" y2="7.148" transform="translate(76.65 71.868)"/><line class="ae" x2="16.486" y2="0.699" transform="translate(80.792 71.169)"/><path class="ad" d="M229.259,182.15c-1.066,3.514-3.531,13.976-1.338,30.314a13.371,13.371,0,0,1-.526,6.026c-3.826,11.431-1.045,22.177.612,26.895L237.62,219.2Z" transform="translate(-111.214 -165.483)"/></g><g transform="translate(225.703 73.743)"><path class="v" d="M471.236,254.18c4.75-2.606-5.044-25.483-5.044-25.483l-8.249,3.554S466.458,256.8,471.236,254.18Z" transform="translate(-376.727 -173.454)"/><path class="ah" d="M453.78,230.236l18.084-7.789,10.306-12.04-3.109,8.636,8.768.024,10.2-3.147-1.923,15.85a34.933,34.933,0,0,1-19,1.107l-16.491,13.945Z" transform="translate(-376.015 -169.953)"/><path class="v" d="M468.779,272.454c4.139-2.252-2.233-14.623-2.233-14.623l-13.428,5.732S464.223,274.933,468.779,272.454Z" transform="translate(-375.901 -178.443)"/><path class="v" d="M450.077,235.008,460.1,231.08s2.875,20.943,9.789,23.508l-19.812,12.47Z" transform="translate(-375.381 -173.862)"/><path class="v" d="M390.313,292.1a3.539,3.539,0,0,1-.888-1.483c18.025-5.992,35.128-.632,40.651,11.685C419.328,310.475,398.908,301.3,390.313,292.1Z" transform="translate(-364.994 -183.635)"/><path class="v" d="M372.068,162.039l-12.122,53.716,15.035,40.955a30.141,30.141,0,0,0,41.292,16.808l36.551-17.468s-8.858,2.33-18.181-32.865L409.7,233.907l-27.038-51.045S382.684,173.849,372.068,162.039Z" transform="translate(-359.946 -162.039)"/><line class="ae" x1="26.638" y2="13.083" transform="translate(56.438 84.424)"/><circle class="v" cx="1.806" cy="1.806" r="1.806" transform="translate(72.541 80.609)"/><path class="v" d="M434.884,267.908a1.806,1.806,0,1,0,1.807-1.807A1.806,1.806,0,0,0,434.884,267.908Z" transform="translate(-372.779 -179.859)"/><line class="ae" x1="16.005" y2="7.148" transform="translate(33.751 71.868)"/><line class="ae" x1="16.486" y2="0.699" transform="translate(29.128 71.169)"/><path class="v" d="M368.307,182.15c1.066,3.514,3.531,13.976,1.338,30.314a13.372,13.372,0,0,0,.526,6.026c3.826,11.431,1.045,22.177-.612,26.895L359.946,219.2Z" transform="translate(-359.946 -165.483)"/></g><path class="ai" d="M307.5,122.664H288.072l-1.01,18.181,10.722,6.293,10.722-6.293Z" transform="translate(-121.762 -81.554)"/><path class="u" d="M301.556,156.657h-5.207l-2.464-8.352H304.02Z" transform="translate(-122.93 -85.944)"/><g transform="translate(155.343 28.151)"><g transform="translate(0 0)"><g transform="translate(0)"><ellipse class="ah" cx="4.188" cy="4.838" rx="4.188" ry="4.838" transform="translate(0 3.849) rotate(-27.36)"/></g></g><g transform="translate(31.084 1.512)"><path class="ah" d="M313.167,111.636c-1.227,2.373-.558,5.158,1.5,6.221s4.715,0,5.943-2.372.558-5.159-1.5-6.221S314.4,109.262,313.167,111.636Z" transform="translate(-312.553 -108.851)"/></g></g><path class="ah" d="M310.131,104.017a8.675,8.675,0,0,1-2.06-7.049h0a1.783,1.783,0,0,0-1.763-2.054H287.816a1.783,1.783,0,0,0-1.763,2.054h0a8.675,8.675,0,0,1-2.06,7.049l-1.15,1.308c.777,16.161,10.256,19.735,14.219,19.735s13.442-3.574,14.218-19.735Z" transform="translate(-121.039 -76.802)"/><g transform="translate(160.051 55.995)"><path class="e" d="M295.441,146.989l-3.467,7.41-11.246-8.459,2.906-5.316Z" transform="translate(-280.727 -140.625)"/><path class="e" d="M301.519,146.989l3.467,7.41,11.247-8.459-2.906-5.316Z" transform="translate(-284.288 -140.625)"/></g><g transform="translate(173.42 70.712)"><path d="M302.065,158.382h-5.206s.428,14.141,4.545,21.6c7.35,13.313,23.542,10.567,27.66,16.7s8.547,15.539,28.126,12.664l11.965-11.732-12.431-5.749s-8.468,3.574-14.062-2.8-10.412-8.391-18.259-8.158S303.657,176.8,302.065,158.382Z" transform="translate(-296.859 -158.382)"/><path d="M302.84,163.368a35.935,35.935,0,0,1-.775-4.986h-5.206s0,.167.018.458A28.853,28.853,0,0,1,302.84,163.368Z" transform="translate(-296.859 -158.382)"/></g></g><g transform="translate(7.967 238.703)"><g transform="translate(159.823 12.785)"><g transform="translate(0 74.844)"><path class="e" d="M202.163,277.04h117.5l1.276-2.885c.8-1.815-1.291-3.623-4.192-3.623H208.325c-1.944,0-3.655.837-4.192,2.054Z" transform="translate(-202.163 -270.532)"/></g><g transform="translate(32.579)"><path class="e" d="M338.242,211.217,324.083,271.1a3.537,3.537,0,0,1-3.443,2.723H233.415a3.537,3.537,0,0,1-3.442-4.35l14.159-59.887a3.538,3.538,0,0,1,3.442-2.723H334.8A3.538,3.538,0,0,1,338.242,211.217Z" transform="translate(-229.877 -206.866)"/></g><g transform="translate(38.862 59.437)"><path class="aj" d="M323.873,259.025h0l-88.064-.423a.588.588,0,0,1,0-1.176h0l88.063.423a.588.588,0,0,1,0,1.176Z" transform="translate(-235.221 -257.426)"/></g><g transform="translate(84.87 28.997)"><path class="r" d="M288.05,238.356a7.816,7.816,0,0,1-7.577,6.825,6,6,0,0,1-6.073-6.825,7.817,7.817,0,0,1,7.578-6.824A5.994,5.994,0,0,1,288.05,238.356Z" transform="translate(-274.358 -231.532)"/></g><g transform="translate(32.579)"><path class="b" d="M251.03,206.866l-15.075,66.959h-2.539a3.537,3.537,0,0,1-3.442-4.35l14.159-59.887a3.538,3.538,0,0,1,3.442-2.723Z" transform="translate(-229.877 -206.866)"/></g><g transform="translate(76.026 66.958)"><path class="e" d="M269.807,263.824l-2.973,14.226h8.739l2.973-14.226Z" transform="translate(-266.834 -263.824)"/></g><g transform="translate(62.97 74.831)"><path class="e" d="M256.031,274.467l1.789-2.516a3.409,3.409,0,0,1,2.776-1.431h23.962a3.406,3.406,0,0,1,3.018,1.828l1.206,2.306a1.621,1.621,0,0,1-1.437,2.372H257.353A1.621,1.621,0,0,1,256.031,274.467Z" transform="translate(-255.728 -270.521)"/></g></g><g transform="translate(0 96.9)"><g transform="translate(26.323 122.122)"><path class="ak" d="M146.541,394.344H91.061a2.46,2.46,0,1,1,0-4.92h55.48a2.46,2.46,0,0,1,0,4.92Z" transform="translate(-88.601 -389.424)"/></g><g transform="translate(38.989 0)"><path class="al" d="M171.492,478.673a2.849,2.849,0,0,1-2.71-1.832l-69.261-194.9a2.646,2.646,0,0,1,1.808-3.388,2.906,2.906,0,0,1,3.615,1.695l69.26,194.9a2.646,2.646,0,0,1-1.808,3.388A3.06,3.06,0,0,1,171.492,478.673Z" transform="translate(-99.375 -278.419)"/></g><path class="al" d="M69.068,478.673a3.06,3.06,0,0,1-.9-.138,2.645,2.645,0,0,1-1.808-3.388l69.26-194.9a2.905,2.905,0,0,1,3.615-1.695,2.644,2.644,0,0,1,1.807,3.388l-69.26,194.9A2.851,2.851,0,0,1,69.068,478.673Z" transform="translate(-66.209 -278.419)"/></g><g transform="translate(309.313 96.9)"><g transform="translate(26.325 122.122)"><path class="al" d="M409.658,394.344h-55.48a2.46,2.46,0,0,1,0-4.92h55.48a2.46,2.46,0,0,1,0,4.92Z" transform="translate(-351.719 -389.424)"/></g><g transform="translate(38.989)"><path class="al" d="M434.609,478.673a2.851,2.851,0,0,1-2.71-1.832l-69.26-194.9a2.644,2.644,0,0,1,1.807-3.388,2.905,2.905,0,0,1,3.615,1.695l69.26,194.9a2.645,2.645,0,0,1-1.808,3.388A3.06,3.06,0,0,1,434.609,478.673Z" transform="translate(-362.492 -278.419)"/></g><g transform="translate(0 0)"><path class="al" d="M332.185,478.673a3.064,3.064,0,0,1-.9-.138,2.646,2.646,0,0,1-1.808-3.388l69.261-194.9a2.9,2.9,0,0,1,3.614-1.695,2.645,2.645,0,0,1,1.808,3.388l-69.26,194.9A2.852,2.852,0,0,1,332.185,478.673Z" transform="translate(-329.326 -278.419)"/></g></g><g transform="translate(16.619 94.078)"><path class="al" d="M471.937,276.018V286.95a7.233,7.233,0,0,1-.188,1.64,7.6,7.6,0,0,1-.81,2.061,10.8,10.8,0,0,1-9.488,4.99H90.829a10.794,10.794,0,0,1-9.484-4.99,7.489,7.489,0,0,1-.81-2.061,7.233,7.233,0,0,1-.188-1.64V276.018Z" transform="translate(-80.346 -276.018)"/><g transform="translate(0.188 12.571)"><path class="e" d="M471.721,286.712a7.6,7.6,0,0,1-.81,2.061H81.316a7.489,7.489,0,0,1-.81-2.061Z" transform="translate(-80.506 -286.712)"/></g></g><g transform="translate(337.169)"><g transform="translate(9.631 63.861)"><g transform="translate(2.25)"><rect class="am" width="44.27" height="6.361" rx="2.036"/></g><g transform="translate(0 6.362)"><path class="am" d="M409.97,269.942a7.292,7.292,0,0,1-1.634,4.327c-3.866,4.647-14.019,5.344-19.353,5.369-.832,0-1.549-.008-2.1-.025h0c-.406-.008-.722-.026-.937-.034s-.339-.016-.339-.016a62.226,62.226,0,0,1-8.771-.182c-.469-.042-.942-.093-1.422-.152-4.8-.574-10.012-1.924-12.541-4.96a6.8,6.8,0,0,1-1.321-2.5,7.472,7.472,0,0,1-.254-1.225,13.894,13.894,0,0,1,.908-6.268c.156-.447.33-.891.511-1.321.27-.645.562-1.271.861-1.866.482-.966.989-1.849,1.453-2.612.109-.178.215-.347.316-.511.253-.4.49-.751.7-1.056.507-.746.84-1.181.84-1.181h37.445a35.7,35.7,0,0,1,2.757,4.314c.186.333.371.683.554,1.046.02.038.038.076.059.119a28.021,28.021,0,0,1,1.24,2.858c.156.439.309.89.435,1.341a14.5,14.5,0,0,1,.6,3.259A10.106,10.106,0,0,1,409.97,269.942Z" transform="translate(-361.215 -255.726)"/></g><g transform="translate(0.983 13.588)"><path class="an" d="M409.219,264.325c-5.985,2.908-13.655,3.631-19.4,3.478-6.682-.173-12.854-2.232-19.312-3.681a33.994,33.994,0,0,0-8.451-.929c.156-.447.33-.891.511-1.321,7.053.018,14.525,3.052,21.241,4.116a47.126,47.126,0,0,0,20.041-1.178,30.33,30.33,0,0,0,4.939-1.827C408.941,263.422,409.093,263.874,409.219,264.325Z" transform="translate(-362.052 -261.873)"/></g><g transform="translate(4.125 6.362)"><path class="an" d="M392.018,255.726a21.784,21.784,0,0,1-27.294,2.237c.253-.4.49-.751.7-1.056a20.516,20.516,0,0,0,24.715-1.181Z" transform="translate(-364.724 -255.726)"/></g><g transform="translate(25.664 19.299)"><path class="an" d="M406.137,268.01a60.494,60.494,0,0,0-20.987,9.7c-.832,0-1.549-.008-2.1-.025a62.02,62.02,0,0,1,23.082-10.95A10.106,10.106,0,0,1,406.137,268.01Z" transform="translate(-383.047 -266.731)"/></g><g transform="translate(0.076 21.167)"><path class="an" d="M376.819,277.17c-.469-.042-.942-.093-1.422-.152a5.448,5.448,0,0,0-2.423-4.782c-3.179-2.132-7.4-2.833-11.439-2.68a7.475,7.475,0,0,1-.254-1.225,26.368,26.368,0,0,1,5.627.435c2.9.544,6.573,1.494,8.471,3.959A6.368,6.368,0,0,1,376.819,277.17Z" transform="translate(-361.28 -268.319)"/></g><g transform="translate(36.758 6.362)"><path class="an" d="M402.2,261.205a8.84,8.84,0,0,1-3.133.362c-3.6-.21-5.812-2.764-6.584-5.841h1.33a6.1,6.1,0,0,0,7.526,4.378c.085-.021.169-.039.249-.064.186.333.371.683.554,1.046C402.162,261.124,402.18,261.163,402.2,261.205Z" transform="translate(-392.484 -255.726)"/></g><g transform="translate(5.271 5.973)"><path class="ao" d="M403.535,256.174H366.089a.39.39,0,1,1,0-.779h37.445a.39.39,0,1,1,0,.779Z" transform="translate(-365.699 -255.395)"/></g></g><g transform="translate(12.935 36.321)"><g transform="translate(6.326 2.487)"><path class="ap" d="M369.408,235.465s6.6-2.408,8.31,4.584,6.6,5.185,7.526,3.654c1.826-3.019,2.081-13.94-1.058-14.6C380.438,228.318,370.728,232.28,369.408,235.465Z" transform="translate(-369.408 -229.003)"/></g><path class="aq" d="M385.132,229.476c-7.743.113-9.791,6.911-11.035,12.9l-2.517-4.7,1.785,8.337c-.19.911-.391,1.753-.622,2.484a12.528,12.528,0,0,1-7.612,7.7s-.348-2.4-.652-5.764v0l2.817-4.431-3.062,1.286c-.342-5.283-.389-11.635.9-15.255,2.485-6.991,9.156-4.84,9.156-4.84Z" transform="translate(-364.027 -226.887)"/></g><g transform="translate(35.098 21.471)"><g transform="translate(0 3.636)"><path class="ap" d="M401.1,223.81s-4.058-1.223-8.31,4.582c-4.1,5.593-5.732,6.249-8.509,4.075s-1.1-14.36,2.04-15.018C390.075,216.661,399.785,220.625,401.1,223.81Z" transform="translate(-382.879 -217.348)"/></g><g transform="translate(2.998)"><path class="aq" d="M413.7,256.1a18.542,18.542,0,0,1-8.51-6.33l4.477-10.507-6.138,7.653a16.173,16.173,0,0,1-.692-1.809c-2.66-8.425-2.115-26.717-17.412-26.938l15.208-3.469s9.521-3.072,13.068,6.906a35.278,35.278,0,0,1,1.5,9.8l-5.538-5.127s3.839,5.571,5.606,7.9A168.7,168.7,0,0,1,413.7,256.1Z" transform="translate(-385.429 -214.255)"/></g></g><g transform="translate(0 5.269)"><g transform="translate(14.625 3.536)"><path class="ap" d="M365.464,210.042s6.6-2.408,8.311,4.582,10.305,9.658,11.188,6.243c.942-3.645-1.139-16.63-4.278-17.288C376.937,202.792,366.784,206.857,365.464,210.042Z" transform="translate(-365.464 -203.481)"/></g><path class="aq" d="M383.147,204.164c-12.506.182-14.6,12.583-16.406,21.708l-6.373-9.193c.081.266,3.46,11.234,4.767,15.582-2.945,7.68-10.534,10.058-10.534,10.058s-2.125-14.677-1.442-25.942c1.864-1.544,5.16-4.307,5.16-4.307l-4.884,1.21a25.741,25.741,0,0,1,1.167-5.457c3.547-9.975,13.07-6.9,13.07-6.9Z" transform="translate(-353.023 -200.473)"/></g><g transform="translate(27.558)"><path class="ap" d="M382.459,259.86h1.647a141.67,141.67,0,0,0-.967-44.82,96.662,96.662,0,0,0-5.107-18.553.816.816,0,0,0-1.5.638,96.918,96.918,0,0,1,5,18.213A140.012,140.012,0,0,1,382.459,259.86Z" transform="translate(-376.465 -195.99)"/></g></g></g><g transform="translate(45.673 306.152)"><g transform="translate(0 5.744)"><path class="am" d="M110.513,253.908a6.867,6.867,0,0,0-.917.059,7.082,7.082,0,0,0,.917,14.1c.161,0,.322-.006.479-.018a6.789,6.789,0,0,0,1.073-.155,7.081,7.081,0,0,0-1.552-13.99Zm1.051,11.16a4.223,4.223,0,0,1-1.051.132c-.1,0-.21,0-.313-.014a4.211,4.211,0,0,1-.1-8.389c.136-.012.276-.02.415-.02a4.211,4.211,0,0,1,1.051,8.29Z" transform="translate(-103.432 -253.908)"/></g><g transform="translate(3.866 5.803)"><path class="ar" d="M110.025,253.974l.5,2.831a4.193,4.193,0,0,0-2.008.752l-.792-2.869A7.021,7.021,0,0,1,110.025,253.974Z" transform="translate(-107.726 -253.974)"/></g><g transform="translate(6.768 16.904)"><path class="ar" d="M112.815,269.134a6.782,6.782,0,0,1-1.073.155l-.792-2.867c.1.01.209.013.313.013a4.223,4.223,0,0,0,1.051-.132Z" transform="translate(-110.949 -266.303)"/></g><g transform="translate(5.168)"><path class="am" d="M132.338,247.528l-.383,2.235-.27,1.579-3.1,18.125-.27,1.579-.364,2.132h-14.4l-.364-2.132-.27-1.579-3.1-18.125-.27-1.579-.383-2.235Z" transform="translate(-109.172 -247.528)"/></g><g transform="translate(5.55 2.235)"><path class="an" d="M132,250.011l-.27,1.579H109.867l-.27-1.579Z" transform="translate(-109.597 -250.011)"/></g><g transform="translate(8.917 21.94)"><path class="an" d="M129,271.9l-.27,1.579H113.606l-.27-1.579Z" transform="translate(-113.336 -271.896)"/></g></g></g></g><g transform="translate(647.576 347.584)"><rect class="e" width="77.688" height="102.675" transform="translate(0 0)"/><path class="n" d="M95.045,349.582a88.929,88.929,0,0,0-12.87-20.546v31.515h66.764C135.482,349.5,116.623,344.013,95.045,349.582Z" transform="translate(-82.175 -257.876)"/><g transform="translate(6.557 58.262)"><line class="as" x2="64.574"/><line class="as" x2="64.574" transform="translate(0 5.571)"/><line class="as" x2="64.574" transform="translate(0 11.142)"/><line class="as" x2="64.574" transform="translate(0 16.713)"/><line class="as" x2="64.574" transform="translate(0 22.284)"/><line class="as" x2="64.574" transform="translate(0 27.855)"/></g><g transform="translate(6.557 11.655)"><rect class="at" width="13.674" height="7.742"/><rect class="at" width="13.674" height="7.742" transform="translate(16.967)"/><rect class="at" width="13.674" height="7.742" transform="translate(33.933)"/><rect class="at" width="13.674" height="7.742" transform="translate(50.9)"/><g transform="translate(0 10.733)"><rect class="at" width="13.674" height="7.742"/><rect class="at" width="13.674" height="7.742" transform="translate(16.967)"/><rect class="at" width="13.674" height="7.742" transform="translate(33.933)"/><rect class="at" width="13.674" height="7.742" transform="translate(50.9)"/></g><g transform="translate(0 21.467)"><rect class="at" width="13.674" height="7.742"/><rect class="at" width="13.674" height="7.742" transform="translate(16.967)"/><rect class="at" width="13.674" height="7.742" transform="translate(33.933)"/><rect class="at" width="13.674" height="7.742" transform="translate(50.9)"/></g><g transform="translate(0 32.2)"><rect class="at" width="13.674" height="7.742"/><rect class="at" width="13.674" height="7.742" transform="translate(16.967)"/><rect class="at" width="13.674" height="7.742" transform="translate(33.933)"/><rect class="at" width="13.674" height="7.742" transform="translate(50.9)"/></g></g></g></g></svg>