<svg xmlns="http://www.w3.org/2000/svg" xmlns:xlink="http://www.w3.org/1999/xlink" width="565.001" height="550" viewBox="0 0 565.001 550"><defs><style>.a{fill:#f4f7fa;}.b{fill:#d6eafb;}.c{fill:url(#a);}.d{fill:url(#b);}.e{fill:url(#c);}.ag,.f,.m,.v{opacity:0.3;mix-blend-mode:multiply;isolation:isolate;}.f{fill:url(#d);}.g{fill:url(#e);}.h{fill:url(#f);}.i{fill:url(#g);}.j{fill:url(#h);}.k{fill:url(#i);}.l{fill:url(#j);}.m{fill:url(#k);}.n{fill:url(#l);}.o{fill:url(#m);}.p{fill:url(#n);}.q{fill:url(#o);}.r{fill:url(#p);}.s{fill:url(#q);}.t{fill:url(#r);}.u{fill:url(#s);}.v{fill:url(#t);}.w{fill:url(#u);}.x{fill:url(#v);}.y{fill:url(#w);}.z{fill:url(#x);}.aa{fill:url(#y);}.ab{fill:url(#z);}.ac{fill:url(#aa);}.ad{fill:url(#ab);}.ae{fill:url(#ac);}.af{fill:url(#ad);}.ag{fill:url(#ae);}.ah{fill:url(#af);}.ai{fill:url(#ag);}.aj{fill:url(#ah);}.ak{fill:url(#ba);}.al{fill:#fbaa49;}.am{fill:url(#bb);}.an{fill:url(#bc);}.ao{fill:#faa24b;}.ap{fill:#242e6c;}.aq{fill:url(#bd);}.ar{fill:#922f55;}.as{fill:#7f2644;}.at{fill:#ecebfc;}.au{fill:#c643db;}.av{fill:#9e30ca;}.aw{fill:#7f22ba;}.ax{fill:#ffb052;}.ay{fill:#febb46;}.az{fill:#1b2251;}.ba{fill:url(#be);}.bb{fill:url(#bf);}.bc{fill:url(#bg);}.bd{fill:url(#bh);}.be{fill:#6b3976;}</style><linearGradient id="a" x1="17.266" y1="-2.259" x2="17.108" y2="-3.852" gradientUnits="objectBoundingBox"><stop offset="0" stop-color="#ffc444"/><stop offset="0.996" stop-color="#f36f56"/></linearGradient><linearGradient id="b" x1="0.524" y1="0.969" x2="0.363" y2="-1.488" gradientUnits="objectBoundingBox"><stop offset="0" stop-color="#aa80f9"/><stop offset="0.996" stop-color="#6165d7"/></linearGradient><linearGradient id="c" x1="1.452" y1="1.446" x2="0.282" y2="0.268" xlink:href="#b"/><linearGradient id="d" x1="1.65" y1="2.032" x2="-0.359" y2="-0.145" xlink:href="#b"/><linearGradient id="e" x1="-27.306" y1="4.245" x2="-27.086" y2="-0.69" xlink:href="#a"/><linearGradient id="f" x1="-28.659" y1="1.437" x2="-29.377" y2="-0.15" gradientUnits="objectBoundingBox"><stop offset="0" stop-color="#444b8c"/><stop offset="0.996" stop-color="#3e4177"/></linearGradient><linearGradient id="g" x1="-70.636" y1="8.255" x2="-70.084" y2="-0.983" xlink:href="#a"/><linearGradient id="h" x1="0" y1="0.5" x2="1" y2="0.5" xlink:href="#a"/><linearGradient id="i" x1="0.269" y1="0.533" x2="1.253" y2="0.533" xlink:href="#a"/><linearGradient id="j" x1="0.549" y1="0.14" x2="0.027" y2="1.757" gradientUnits="objectBoundingBox"><stop offset="0" stop-color="#444b8c"/><stop offset="0.996" stop-color="#26264f"/></linearGradient><linearGradient id="k" x1="0.541" y1="0.092" x2="0.336" y2="0.927" xlink:href="#j"/><linearGradient id="l" x1="0.633" y1="-0.022" x2="0.151" y2="1.451" xlink:href="#j"/><linearGradient id="m" x1="0.53" y1="0.938" x2="0.422" y2="-1.564" xlink:href="#a"/><linearGradient id="n" x1="0.531" y1="0.934" x2="0.349" y2="-1.47" xlink:href="#b"/><linearGradient id="o" x1="4.088" y1="1.119" x2="3.721" y2="-1.282" xlink:href="#j"/><linearGradient id="p" x1="-35.124" y1="-50.317" x2="-35.293" y2="-54.1" xlink:href="#j"/><linearGradient id="q" x1="0.072" y1="0.399" x2="1.817" y2="0.879" gradientUnits="objectBoundingBox"><stop offset="0" stop-color="#311944"/><stop offset="1" stop-color="#a03976"/></linearGradient><linearGradient id="r" x1="0.425" y1="0.483" x2="1.149" y2="0.834" xlink:href="#q"/><linearGradient id="s" x1="0.585" y1="0.16" x2="0.236" y2="1.502" xlink:href="#b"/><linearGradient id="t" x1="0.665" y1="-0.221" x2="0.442" y2="0.617" xlink:href="#b"/><linearGradient id="u" x1="0.146" y1="0.338" x2="1.842" y2="0.87" xlink:href="#q"/><linearGradient id="v" x1="0.221" y1="0.393" x2="1.247" y2="1.282" xlink:href="#f"/><linearGradient id="w" x1="0.302" y1="0.334" x2="1.171" y2="0.936" xlink:href="#f"/><linearGradient id="x" y1="0.5" x2="1" y2="0.5" gradientUnits="objectBoundingBox"><stop offset="0" stop-color="#ff9085"/><stop offset="1" stop-color="#fb6fbb"/></linearGradient><linearGradient id="y" x1="0" y1="0.5" x2="1" y2="0.5" xlink:href="#q"/><linearGradient id="z" x1="-2.894" y1="-7.159" x2="0.704" y2="0.899" xlink:href="#q"/><linearGradient id="aa" x1="0.591" y1="0.091" x2="0.38" y2="1.245" xlink:href="#b"/><linearGradient id="ab" x1="0.776" y1="-0.17" x2="-0.072" y2="1.833" xlink:href="#q"/><linearGradient id="ac" x1="0.714" y1="-0.214" x2="-0.032" y2="1.834" xlink:href="#b"/><linearGradient id="ad" x1="1.007" y1="-0.042" x2="-1.013" y2="1.542" xlink:href="#b"/><linearGradient id="ae" x1="-3.788" y1="-1.977" x2="2.621" y2="1.962" xlink:href="#x"/><linearGradient id="af" x1="0.282" y1="0.331" x2="1.155" y2="0.698" xlink:href="#q"/><linearGradient id="ag" x1="0.5" x2="0.5" y2="1" gradientUnits="objectBoundingBox"><stop offset="0" stop-color="#abdcff"/><stop offset="1" stop-color="#45affb"/></linearGradient><linearGradient id="ah" x1="0.5" x2="0.5" y2="1" gradientUnits="objectBoundingBox"><stop offset="0" stop-color="#44caff"/><stop offset="1" stop-color="#7f41db"/></linearGradient><linearGradient id="ba" x1="-0.623" y1="-1.084" x2="0.622" y2="1.271" gradientUnits="objectBoundingBox"><stop offset="0" stop-color="#ff7d78"/><stop offset="1" stop-color="#ffc444"/></linearGradient><linearGradient id="bb" x1="0.578" y1="0.8" x2="1.875" y2="0.111" gradientUnits="objectBoundingBox"><stop offset="0" stop-color="#ffc444"/><stop offset="1" stop-color="#f36f56"/></linearGradient><linearGradient id="bc" x1="2.685" y1="-0.322" x2="-0.788" y2="0.949" gradientUnits="objectBoundingBox"><stop offset="0" stop-color="#f36f56"/><stop offset="1" stop-color="#fbaa49"/></linearGradient><linearGradient id="bd" x1="2.011" y1="-0.669" x2="0.5" y2="1" xlink:href="#bc"/><linearGradient id="be" x1="0.654" y1="1.522" x2="0.321" y2="-0.491" xlink:href="#a"/><linearGradient id="bf" x1="-128.833" y1="-9.688" x2="-128.155" y2="-11.234" gradientUnits="objectBoundingBox"><stop offset="0" stop-color="#311944"/><stop offset="1" stop-color="#6b3976"/></linearGradient><linearGradient id="bg" x1="164.138" y1="-26.206" x2="164.173" y2="-23.044" xlink:href="#a"/><linearGradient id="bh" x1="-0.082" y1="-3.776" x2="0.506" y2="0.321" xlink:href="#bf"/></defs><g transform="translate(-791.611 -145)"><path class="a" d="M607.265,924.525C488.5,906.21,391.977,791.865,409.512,664.773c14.96-108.388,108.283-192.738,220.2-200.7a242.564,242.564,0,0,1,183.5,65.23c40.833,38.294,67.362,89.513,72.192,143.248C898.265,815.516,754.988,947.306,607.265,924.525Z" transform="translate(416.479 -251.805)"/><path class="b" d="M965.4,1353.7s-386.915-139.109-314.611-171.843c66.884-30.281,219.318-83.01,143.138-108.2-79.579-26.309-221.6-45.916-221.6-45.916s139.294,56.172,109.758,57.6c-30.292,1.468-365.614,80.293-211.975,237.669,60.27,61.736,125.884,122.794,214.657,130.819,51.618,4.667,102.954-12.983,152.2-25.722C836.967,1428.11,1012.438,1382.714,965.4,1353.7Z" transform="translate(361.592 -759.6)"/><g transform="translate(1046.791 327.719)"><path class="c" d="M2699.92,1383.315a7.042,7.042,0,0,0,1.812-2.659,7.953,7.953,0,0,0,.612-2.3c.4-4.776-6.042-4.566-7.344-6.438-1.485-2.134-5.467-1.157-5.467-1.157l-19.187-19.873c-3.538-3.947-5.486-5.5-6.561-6.967a5.769,5.769,0,0,1-1.042-2.426c-.837-4.349,1.911-8.274,6.181-13.613,13.67-17.13,16.654-15.109,20.244-22.7,5.051-10.674-5.67-20.261-10.851-22.462-6.471-2.742-8.052,5.92-19.775,21.441-16.04,21.225-24.067,31.852-20.619,42.316,1.933,5.868,7.632,10.945,14.074,14.88l.028.013c-.018-.008.022.128.022.128l.056-.081a76.827,76.827,0,0,0,12.063,5.9c.028.013.062.024.09.037,9.523,4.78,21.351,11.042,22.826,13.339C2689.195,1383.992,2696.067,1386.8,2699.92,1383.315Z" transform="translate(-2528.604 -1245.544)"/><path class="d" d="M2718.481,1260.51s-25.915-19.037-40.491,33.463c23.257,7.011,45.323,13.063,45.323,13.063S2731.831,1267.271,2718.481,1260.51Z" transform="translate(-2562.416 -1224.796)"/><path class="e" d="M2549.751,1317.21c-4.281,18.125-8.6,19.947-7.58,30.89a47.164,47.164,0,0,0,1.018,6.142c1.366,5.855,3.092,9.631.694,13.519-2.134,3.447-6.135,4.752-14.875,6.086-.608.091-1.238.181-1.868.272-.33.049-.665.091-1,.14-27.437,3.818-41.151,5.73-45.632-.977-1.862-2.778-1.045-5.13.143-14.314,1.238-9.569,3.149-24.316,2.075-33.9-2.384-21.357-16.534-26.269-15.259-42.287a25.462,25.462,0,0,1,1.946-8c4.294-10.12,13.936-14.719,14.652-15.089,5.984-3.071,14.009-3.483,30.056-4.3,12.978-.663,19.562-.935,24.388,1.807,9.347,5.318,12,16.338,13.556,22.829C2555.32,1293.572,2552.593,1305.15,2549.751,1317.21Z" transform="translate(-2388.122 -1222.975)"/><path class="f" d="M2543.882,1462.949c-2.134,3.448-6.135,4.753-14.875,6.086-.608.091-1.238.182-1.868.272-.33.049-.665.091-1,.14-27.437,3.817-41.151,5.73-45.632-.977-1.862-2.778-1.045-5.13.143-14.314,1.238-9.568,3.149-24.315,2.075-33.9-2.384-21.356-16.534-26.27-15.259-42.287a25.468,25.468,0,0,1,1.946-8c21.831,9.478,36.283,34.072,32.725,46.851-1.159,4.159-5.332,7.273-8.238,17.4-.622,2.184-4.8,10.217.987,14.049,3.343,2.212,10.666-1.55,18.79-2.094,14.073-.949,11.625,12.144,20.822,9a75.071,75.071,0,0,0,8.691-5.737C2544.555,1455.286,2546.28,1459.062,2543.882,1462.949Z" transform="translate(-2388.122 -1318.164)"/><path class="g" d="M2662.626,1163.706a36.6,36.6,0,0,1-2.127,10.459c-1.677,4.048-10.5,6.592-12.289,7.5s3.351,3.544,8.513,4.063,19.9-.653,22.557-2.609-2.135-1.81-5.819-3.162-5.815-8.557-5.164-11.827S2662.626,1163.706,2662.626,1163.706Z" transform="translate(-2537.471 -1147.466)"/><path class="h" d="M2711.736,1083.586c2.678-2.631,3.052-2.939,3.343-3.848,1.17-3.651-1.661-8.65-5.374-9.881-.194-.064-2.685-.861-3.635.219-.808.918.381,2.185-.184,3.953-.53,1.656-1.965,1.78-4.625,3.951-2.192,1.788-3.553,2.9-3.867,4.463-.648,3.224,3.255,7.9,6.709,7.768C2705.346,1090.166,2705.684,1089.532,2711.736,1083.586Z" transform="translate(-2578.417 -1069.514)"/><g transform="translate(122.954 11.742)"><path class="i" d="M2723.868,1147.073a7.607,7.607,0,0,0,7.184,2.158c3.882-.953,2.892-9.865.049-11.289a5.037,5.037,0,0,0-3.966.189c-.764.369-.977.752-2.24,1.331-1.163.533-1.532.459-1.845.835-.391.469-.561,1.48.667,3.919a2.171,2.171,0,0,0-2.42-.343,1.364,1.364,0,0,0-.432.6C2720.5,1145.578,2721.642,1146.7,2723.868,1147.073Z" transform="translate(-2720.797 -1137.62)"/></g><path class="j" d="M2774.45,1982.127c-5-18.052-33-57.3-33-57.3l-33.468,32.18s23.585,22.371,37.522,27.472-13.222,20.408-7.862,70.642l5,2.354S2779.452,2000.179,2774.45,1982.127Z" transform="translate(-2587.238 -1777.363)"/><path class="k" d="M2147,1940.818s-20.658,19.351-18.951,36.569-18.916,12.258-31.113,15.437-40.795,22.63-40.795,22.63l1.678,6.49s80.051-9.555,87.043-15.406,41.666-49.417,40.26-52.681S2147,1940.818,2147,1940.818Z" transform="translate(-2047.781 -1790.595)"/><path class="l" d="M2711.614,1962.555c-1.431-.179-28.273-21.3-28.273-21.3s-.35-6.936-2.019-17.809c-.994-6.5-2.462-14.416-4.6-23.1,13.743-1.668,39.767,2.07,39.767,2.07s16.758,21.051,23.637,29.625c1.811,2.262,3.013,3.729,3.164,3.844C2744,1936.429,2723.6,1954.5,2711.614,1962.555Z" transform="translate(-2561.365 -1756.751)"/><path class="m" d="M2733.706,2049.953c-1.432-.179-28.274-21.294-28.274-21.294s-.351-6.937-2.018-17.809a33.389,33.389,0,0,1,7.33-2.592s19.921-8.353,20.157,4.173,3.106,23.865,10.858,17.179c5.369-4.617,14.38-9.577,20.457-10.164,1.812,2.262,3.014,3.729,3.164,3.843C2766.1,2023.826,2745.7,2041.9,2733.706,2049.953Z" transform="translate(-2583.457 -1844.15)"/><path class="n" d="M2466.715,1908.041s-18.506,29.052-17.783,40.744c18.617,17.9,33.41,21.474,33.41,21.474s37.928-51.851,37.937-58.7C2506.2,1900.589,2475.663,1899.509,2466.715,1908.041Z" transform="translate(-2372.834 -1758.789)"/><path class="o" d="M2593.493,1407.854a7.04,7.04,0,0,0-1.908-2.591,7.972,7.972,0,0,0-1.964-1.339c-4.373-1.961-6.31,4.188-8.508,4.8-2.506.694-2.9,4.774-2.9,4.774l-25.11,11.515c-4.9,2.03-7.011,3.351-8.747,3.88a5.756,5.756,0,0,1-2.633.179c-4.381-.651-7.174-4.545-10.795-10.343-11.631-18.575-10.937-23.213-16.914-29.118-8.4-8.3-22.69-11.911-26.483-7.752-4.732,5.2,6.813,22.6,17.572,38.8,14.709,22.168,22.074,33.263,33.09,33.477,6.178.122,12.856-3.572,18.7-8.346l.022-.022c-.014.015.129.022.129.022l-.059-.08a76.8,76.8,0,0,0,9.564-9.425c.022-.022.044-.051.064-.072,7.667-7.4,17.495-16.485,20.15-17.115C2590.578,1418.2,2595.5,1412.643,2593.493,1407.854Z" transform="translate(-2403.889 -1326.57)"/><path class="p" d="M2480.713,1309.521s-30.163,7.818,1.611,51.938c19.684-13.063,29.073-17.036,29.073-17.036S2494.135,1303.751,2480.713,1309.521Z" transform="translate(-2388.443 -1267.677)"/><path class="q" d="M2017.674,2379.879s0-7.727-1.967-7.332-8.493.251-8.026,3.364,3.719,28.2,6.96,18.768S2017.674,2379.879,2017.674,2379.879Z" transform="translate(-2007.657 -2147.877)"/><path class="r" d="M2870.954,2685.193s-6.855-3.918-7.358-1.9-3.459,7.971-.5,9.118,26.635,10.858,19.667,3.083S2870.954,2685.193,2870.954,2685.193Z" transform="translate(-2714.535 -2404.581)"/></g><g transform="translate(987.479 312.816)"><path class="s" d="M2158,1348.972s6.272-2.1,12.343,15.433,24.62,57.2,7.12,54.541-23.146-37.88-23.146-37.88Z" transform="translate(-2065.185 -1285.822)"/><path class="t" d="M1774.754,1817.492s15.161,71.208,0,80.916-50.235,27.28-77.827,29.485l2.834-7.833s13.311-17.322,48.263-26.909-3.163-70.85-3.163-70.85Z" transform="translate(-1686.658 -1673.629)"/><path class="u" d="M2037.845,1841.041c-.056,1.628-.343,2.764-.926,3.2-7.66,2.42-16.8,9.456-24.124,2.259a19.346,19.346,0,0,1-3.346-4.595c-7.716-14.149-3.571-36.968-3.571-36.968l24.5-.912S2038.182,1831.312,2037.845,1841.041Z" transform="translate(-1941.422 -1662.483)"/><path class="v" d="M2068.169,1879.313c-.056,1.628-.344,2.765-.927,3.2-7.661,2.42-16.8,9.455-24.123,2.259l-1.712-34.176s13.329-2.806,15.433,8.067-.232,21.044,7.366,20.462A16.343,16.343,0,0,1,2068.169,1879.313Z" transform="translate(-1971.745 -1700.756)"/><path class="w" d="M1785.5,1789.051s-16.921,22.949,10.776,56.256,32.086,27.893,35.158,35.337,8.683,51.43,18.5,65.739l9.821,14.308,5.612-4.076s-16.274-84.367-22.342-96.264-19.84-65.21-19.84-65.21Z" transform="translate(-1755.724 -1650.091)"/><path class="x" d="M1815.885,1011.853s1.578-12.013-9.558-12.539-11.4,2.309-14.088-4.706-16.836-18.122-22.1-6.43,9.47,6.08,9.7,14.615,1.754,16.251,11.457,12.977S1815.1,1023.719,1815.885,1011.853Z" transform="translate(-1746.311 -983.075)"/><path class="y" d="M2030.827,1138.656s5.348-9.88-3.537-13.27-16.721,2.923-17.86,8.009,2.649,11.689,11.5,12.246S2030.827,1138.656,2030.827,1138.656Z" transform="translate(-1945.118 -1100.057)"/><path class="z" d="M1885.163,1326.007c-1.362,9.912-7.324,16.59-8.79,18.379-4.482,5.465-7.709,15.538-6.047,34.948a49.058,49.058,0,0,1-8.965.982c-19.06.666-51.3-3.914-51.3-3.914,1.389-2.792,2.736-5.724,4.013-8.783a153.916,153.916,0,0,0,11.4-69.11q-.158-2.441-.358-4.581c5.871-1.978,24.209-7.323,41.655,1.122,4.348,2.1,11.1,5.493,15.3,13.188A29.283,29.283,0,0,1,1885.163,1326.007Z" transform="translate(-1780.286 -1237.442)"/><path class="aa" d="M2020.462,1230.343s1.477,8.854-4.787,9.626l-5.3.745s11.448,19.992,19.491,19.454,6.853-12.674,6.853-12.674-6.789-2.815-8.543-5.4a9.836,9.836,0,0,1-1.578-7.761C2027.214,1232.359,2020.462,1230.343,2020.462,1230.343Z" transform="translate(-1946.065 -1187.711)"/><path class="ab" d="M2047.338,1176.866s3.659,5.736,9.425,4.666c5.164-.958,4.369-14.013.75-16.095a6.922,6.922,0,0,0-5.353-.159c-1.227.507-5.812,3.409-4.8,7.827-1.113-.887-2.351-1.132-3.147-.632a1.789,1.789,0,0,0-.613.758C2043.027,1174.651,2044.447,1176.208,2047.338,1176.866Z" transform="translate(-1973.454 -1133.485)"/><path class="ac" d="M1780.514,1789.051s-16.828,24.32,5.163,53.088c12.1-1.228,13.737-1.169,14.03-2.748s-1.345-8.3,2.455-4.092,26.481,1.053,27.007-1.929-5.086-36.568-9.295-39.417S1780.514,1789.051,1780.514,1789.051Z" transform="translate(-1750.739 -1650.091)"/><path class="ad" d="M2258.892,1543.961s8.067-5.787,16.134-11.048,12.8-7.534,13.5-10.431,2.28-3.482,3.858-3.482,1.286-4.326,4.091-1.637,4.677,5.378-2.279,9.529-24.774,35.382-35.858,30.493S2258.892,1543.961,2258.892,1543.961Z" transform="translate(-2147.316 -1424.516)"/><path class="ae" d="M2240.139,2744.3c.035.034,1.226,6.931,4.084,5.888,3.041-1.111,14.38-8.827,14.031-12.393s-9.412-.7-12.1,1.345Z" transform="translate(-2136.212 -2433.861)"/><path class="af" d="M1677.561,2411.654s-5.948-2.215-6.064,1.292-2.923,19.175.467,17.888,4.709-11.955,4.709-11.955Z" transform="translate(-1664.617 -2164.78)"/><path class="ag" d="M1862.105,1402.056a15,15,0,0,0-.744,11.975c-19.06.666-51.3-3.914-51.3-3.914,1.389-2.792,2.736-5.724,4.013-8.783a153.916,153.916,0,0,0,11.4-69.11c2.813-1.789,6.039-1.4,9.743,2.006,0,0,13.616,11.244,9.38,24.1s-11.715,17.306-2.834,21.746S1870.291,1384.758,1862.105,1402.056Z" transform="translate(-1780.286 -1271.157)"/><path class="ah" d="M1696.822,1318c-.846-10.347-1.843-15.234-13.182-12.615s-45.362,24.365-46.238,31.029,12.977,36.824,17.537,42.262l3.77,6.841s3.069,9.464,7.366,8.856,2.571-8.48,2.6-9.357-2.831-1.516-4.5-4.409-9.236-35.535-9.236-35.535l15.5-6.729S1697.669,1328.349,1696.822,1318Z" transform="translate(-1637.362 -1249.24)"/></g><ellipse class="ai" cx="8.5" cy="8" rx="8.5" ry="8" transform="translate(1055.193 322.322)"/><circle class="aj" cx="7.5" cy="7.5" r="7.5" transform="translate(1208.543 360.539)"/><ellipse class="ai" cx="15" cy="14.5" rx="15" ry="14.5" transform="translate(1234.533 271)"/><ellipse class="aj" cx="10" cy="10.5" rx="10" ry="10.5" transform="translate(972.793 212)"/><circle class="aj" cx="7.5" cy="7.5" r="7.5" transform="translate(1096.727 225)"/><g transform="translate(1170.92 145)"><ellipse class="aj" cx="1.5" cy="21" rx="1.5" ry="21" transform="translate(19)"/><ellipse class="aj" cx="2" cy="20.5" rx="2" ry="20.5" transform="translate(41 19) rotate(90)"/></g><circle class="ai" cx="8.5" cy="8.5" r="8.5" transform="translate(848 195)"/><g transform="translate(1325.611 495)"><ellipse class="aj" cx="1" cy="16" rx="1" ry="16" transform="translate(14)"/><ellipse class="aj" cx="1" cy="15.5" rx="1" ry="15.5" transform="translate(31 15) rotate(90)"/></g><ellipse class="ai" cx="8.5" cy="8" rx="8.5" ry="8" transform="translate(1055.193 322.322)"/><circle class="aj" cx="7.5" cy="7.5" r="7.5" transform="translate(1208.543 360.539)"/><ellipse class="ai" cx="15" cy="14.5" rx="15" ry="14.5" transform="translate(802 437)"/><ellipse class="aj" cx="10" cy="10.5" rx="10" ry="10.5" transform="translate(971.535 212)"/><circle class="aj" cx="7.5" cy="7.5" r="7.5" transform="translate(1095.895 225)"/><g transform="translate(1170.377 145)"><ellipse class="aj" cx="1.5" cy="21" rx="1.5" ry="21" transform="translate(19)"/><ellipse class="aj" cx="2" cy="20.5" rx="2" ry="20.5" transform="translate(41 19) rotate(90)"/></g><circle class="ai" cx="8.5" cy="8.5" r="8.5" transform="translate(848 195)"/><g transform="translate(1325.611 495)"><ellipse class="aj" cx="1" cy="16" rx="1" ry="16" transform="translate(14)"/><ellipse class="aj" cx="1" cy="15.5" rx="1" ry="15.5" transform="translate(31 15) rotate(90)"/></g><path class="ak" d="M2327.9,1130.337s-15.49.905-17.173,7.3c-2.686,10.2-5.195,33.985-5.195,33.985l-15.629-19.38-5.626,2.709s13.336,35.843,24.59,34.176S2327.9,1130.337,2327.9,1130.337Z" transform="translate(-1412.494 -782.156)"/><path class="al" d="M2415.95,1177.931c-5.9-13.236-8.726-16.979-8.824-21.143-.078-3.293,1.546-6.846,4.7-15.56a32.509,32.509,0,0,0,1.571-6.3c2.495-16.8-4.264-34.177-10.3-35.414-1.68-.444-20.8-.521-21.506-.138-.918.083-1.459.138-1.459.138s-10.6,14.72-11.491,28.411,8.488,19.638-.071,47C2359.831,1202.865,2419.21,1185.245,2415.95,1177.931Z" transform="translate(-1466.867 -751.125)"/><path class="am" d="M2462.43,1132.129s10.426-2.858,12.11.846c5.434,11.956,10.859,52.278,12.375,55.814s6.146,22.982,10.1,32.579l-5.051,1.515s-16.668-27.655-18.184-34.852-9.824-36.47-9.824-36.47Z" transform="translate(-1526.047 -780.502)"/><path class="an" d="M2369.2,1415.053c-2.382,13.489-4.129,23.6-4.129,23.6,7.046,28.9-25.364,73.6-25.364,73.6l-5.035-2.021s14.664-35.28,9.664-70.46c-7.072-49.752,2.273-83.089,2.273-83.089l29.922,9.652,1.394.449C2375.271,1380.881,2371.849,1400.054,2369.2,1415.053Z" transform="translate(-1445.348 -929.709)"/><path class="ao" d="M2432.837,1238.97c-3.154,8.713-4.778,12.266-4.7,15.56-10.054-15.567-28.215-17.916-28.215-17.916l34.485-3.942A32.444,32.444,0,0,1,2432.837,1238.97Z" transform="translate(-1487.879 -848.867)"/><path class="ap" d="M2407.515,1161.733l.2,12.491a131.377,131.377,0,0,0-22.679-4.16,71.955,71.955,0,0,0-8.546-.237,36.177,36.177,0,0,0-9.62,1.5s-1.851-8.082-3.7-17.678q-.1-.519-.159-1.031c-1.071-9.13,7.041-16.59,3.632-20.242,0,0,3.146-1.755,10.377-2.594,0,0-5.682,10.018-5.177,12.544s22.477.253,23.993-1.136,3.914-12.027,3.914-12.027,8.25.837,11.585,3.619a33.653,33.653,0,0,0-4.185,7.064,17.429,17.429,0,0,0-1.086,3.49c-.588,3.144-2.146,9.135,1.389,13.848Z" transform="translate(-1463.748 -781.391)"/><path class="ao" d="M2413.1,1424.313c-2.659,14.095-3.051,17.358-5.7,32.357-16.418-28.659-14-36.145-14-36.145Z" transform="translate(-1483.545 -971.324)"/><path class="aq" d="M2466.338,1500.394l-4.912,1.746s-19.127-54.249-26.973-62.61c-15.161-16.156-37.476-86.6-37.476-86.6l30.152-9.786c4.472,4.336,8.107,12.448,11.034,22,7.387,24.1,10.254,57.367,10.64,62.183v.012a1.672,1.672,0,0,0,.477.971C2472.757,1454.43,2466.338,1500.394,2466.338,1500.394Z" transform="translate(-1485.959 -920.879)"/><path class="ar" d="M2382.146,1377.05l-4.927-1.287a48.536,48.536,0,0,0-7.3-1.8,49.468,49.468,0,0,0-13.042-.523c2.273-24.308,4.9-30.134,4.9-30.134l3.207-.172,8.394,17.386Z" transform="translate(-1459.818 -920.879)"/><path class="as" d="M2406.5,1409.607l-4.927-1.287a48.518,48.518,0,0,0-7.3-1.8c-.331-4.667,1.548-9.667,3.46-13.443Z" transform="translate(-1484.168 -953.436)"/><path class="ao" d="M2493.442,1468.518c-15.789-12.345-27.988-53.708-27.988-53.708l17.348-8.475C2490.188,1430.438,2493.055,1463.7,2493.442,1468.518Z" transform="translate(-1530.598 -962.074)"/><path class="ar" d="M2372.867,1337.286s7.229,5.461,14.553,4.956,28.706-5.388,28.706-5.388,3.962,5.754,6.735,17.173a107.469,107.469,0,0,1,3.082,20.416s-25.307-3.157-35.409,2.146Z" transform="translate(-1470.242 -916.781)"/><path class="at" d="M2330.06,1819.895a.377.377,0,0,0-.033.036h-1.738a3,3,0,0,1,.46-.036Z" transform="translate(-1441.184 -1231.666)"/><g transform="translate(961.938 437.674)"><g transform="translate(7.121 0)"><path class="au" d="M2586.986,1393.829a8.916,8.916,0,0,0-11.035-6.09,9.352,9.352,0,0,0-3.3,1.63l-1.908,1.384s-2.015,5.109-1.3,7.779c1.25,4.662,12.143,6.087,12.143,6.087l2.162-1.6v0A8.741,8.741,0,0,0,2586.986,1393.829Z" transform="translate(-2567.345 -1387.416)"/><path class="av" d="M2581.533,1397.612a9.088,9.088,0,1,0-6.507,10.794A8.916,8.916,0,0,0,2581.533,1397.612Z" transform="translate(-2563.702 -1389.882)"/></g><path class="aw" d="M2561.115,1412.975a2.027,2.027,0,0,0-2.718-1.568c-.552.2-15.15,9.34-15.15,9.34l3.123,3.867,14.167-10.114A1.681,1.681,0,0,0,2561.115,1412.975Z" transform="translate(-2543.247 -1402.97)"/></g><g transform="translate(860.848 351.98)"><path class="au" d="M2269.391,1144.591l-1.908-1.385a9.355,9.355,0,0,0-3.3-1.63,8.915,8.915,0,0,0-11.035,6.09,8.742,8.742,0,0,0,3.237,9.188v0l2.163,1.6s10.893-1.425,12.143-6.088C2271.406,1149.7,2269.391,1144.591,2269.391,1144.591Z" transform="translate(-2252.859 -1141.253)"/><path class="av" d="M2269.381,1145.361a8.746,8.746,0,1,0,6.506,10.794A8.915,8.915,0,0,0,2269.381,1145.361Z" transform="translate(-2256.247 -1143.719)"/><path class="aw" d="M2281.938,1165.245a2.027,2.027,0,0,0-2.718,1.568,1.681,1.681,0,0,0,.578,1.526l14.167,10.114,3.123-3.867S2282.49,1165.448,2281.938,1165.245Z" transform="translate(-2270.037 -1156.807)"/></g><path class="ax" d="M2279.1,1178.7s-5.21-6.461-1.459-9.794,8.614-2.362,8.752-.417-1.667,7.5-1.667,7.5Z" transform="translate(-1407.279 -805.867)"/><path class="ay" d="M2559.38,1394.166s1.536,3.62,3.135,4.63,3.873,3.452,3.452,5.388-.842,4.967-2.863,4.967-6.735-8.923-7.323-10.607-1.095-2.021-1.095-2.021Z" transform="translate(-1588.766 -954.143)"/><g transform="translate(956.186 445.475)"><g transform="translate(0 0)"><path class="au" d="M2552.053,1416.8a9.7,9.7,0,0,0-12-6.624,10.17,10.17,0,0,0-3.59,1.773l-2.076,1.506s-2.192,5.558-1.413,8.463c1.36,5.072,13.21,6.623,13.21,6.623l2.353-1.744v0A9.51,9.51,0,0,0,2552.053,1416.8Z" transform="translate(-2530.687 -1409.827)"/><path class="av" d="M2546.122,1420.92a9.886,9.886,0,1,0-7.079,11.742A9.7,9.7,0,0,0,2546.122,1420.92Z" transform="translate(-2526.724 -1412.51)"/></g><g transform="translate(6.05 7.477)"><path class="aw" d="M2552.238,1433.571a3.149,3.149,0,0,0-3.9-2.151,3.312,3.312,0,0,0-1.166.575l-.674.489.082.106a3.039,3.039,0,0,0-.541,2.642,3.219,3.219,0,0,0,4.21,2.05l.078.1.764-.566h0A3.087,3.087,0,0,0,2552.238,1433.571Z" transform="translate(-2545.301 -1431.306)"/><path class="au" d="M2550.4,1434.907a3.21,3.21,0,1,0-2.3,3.812A3.149,3.149,0,0,0,2550.4,1434.907Z" transform="translate(-2544.104 -1432.177)"/></g></g><g transform="translate(871.969 359.781)"><g transform="translate(0 0)"><path class="au" d="M2285.122,1170.641a9.7,9.7,0,0,1,12-6.624,10.179,10.179,0,0,1,3.591,1.773l2.076,1.506s2.191,5.558,1.412,8.463c-1.36,5.072-13.21,6.623-13.21,6.623l-2.353-1.744v0A9.51,9.51,0,0,1,2285.122,1170.641Z" transform="translate(-2284.807 -1163.664)"/><path class="av" d="M2302.78,1168.132a9.515,9.515,0,1,0,7.079,11.742A9.7,9.7,0,0,0,2302.78,1168.132Z" transform="translate(-2288.493 -1166.347)"/></g><g transform="translate(8.592 7.477)"><path class="aw" d="M2315.245,1186.427l.082-.105-.674-.489a3.3,3.3,0,0,0-1.166-.576,3.149,3.149,0,0,0-3.9,2.151,3.088,3.088,0,0,0,1.143,3.245h0l.764.566.078-.1c.1.038.207.072.314.1a3.149,3.149,0,0,0,3.9-2.151A3.041,3.041,0,0,0,2315.245,1186.427Z" transform="translate(-2309.488 -1185.143)"/><path class="au" d="M2315.323,1186.594a3.089,3.089,0,1,0,2.3,3.812A3.149,3.149,0,0,0,2315.323,1186.594Z" transform="translate(-2310.685 -1186.014)"/></g></g><path class="az" d="M2449.149,1235.217a131.362,131.362,0,0,0-22.679-4.16,29.76,29.76,0,0,0,22.457-8.307.174.174,0,0,0,.025-.025Z" transform="translate(-1505.184 -842.385)"/><path class="as" d="M2370.952,1338.618s6.558,4.805,13.506,5,31.362-5.779,31.362-5.779l-1.007-1.9s-26.763,7.159-33.04,5.037a43.634,43.634,0,0,1-9.993-4.693Z" transform="translate(-1468.994 -916.186)"/><path class="ba" d="M5.326,0A34.2,34.2,0,0,0,13.2,7.179c6.325,4.146,10.923,4.172,11.031,5.8.235,3.543-21.025,8.552-22.487,5.342-.774-1.7,4.649-4.267,4.448-8.807C6.041,6.083,2.77,3.42,0,1.695Z" transform="translate(914.041 331.393) rotate(9)"/><g transform="translate(914.482 319.377) rotate(9)"><path class="bb" d="M1.131,9.39A6.137,6.137,0,0,1,1.09,2.348C2.414.58,4.556.281,5.838.1c3.716-.518,8.455.927,10.171,4.318,1.017,2.009-.98,6.281-1.29,7.049-.352.867-1.018,1.177-1.627,1.841-.843.92-2.162,2.384-4.313,4.83a15.358,15.358,0,0,0-.906-2.509,13.586,13.586,0,0,0-1.84-2.93C4.036,10.38,2.477,11.092,1.131,9.39Z"/><path class="bc" d="M11.309,9.051a8.331,8.331,0,0,1-7.24,3.875c-4.374-.182-5.244-9.96-2.5-12.1a5.516,5.516,0,0,1,4.3-.658c.9.23,1.213.594,2.692.941,1.365.32,1.744.161,2.162.5.522.419.922,1.466.134,4.349a2.377,2.377,0,0,1,2.522-.893,1.491,1.491,0,0,1,.594.554C14.6,6.715,13.616,8.168,11.309,9.051Z" transform="translate(0.572 7.001)"/></g><path class="bd" d="M21.2,1.011s1.005,6.759.007,8.39S0,3,0,3-.322,1.69,4.74,1.082,19.879-.976,21.2,1.011Z" transform="matrix(0.978, -0.208, 0.208, 0.978, 876.402, 580.092)"/><path class="bd" d="M21.2,1.011s1.005,6.759.007,8.39S0,3,0,3-.322,1.69,4.74,1.082,19.879-.976,21.2,1.011Z" transform="translate(960.473 579.826) rotate(-17)"/><path class="be" d="M1.4,25.316c.193.016.352.26.484.188s.123-.432,0-.682a.9.9,0,0,0-.349-.375,2.367,2.367,0,0,0,.417-.945,3.268,3.268,0,0,0-.523-2.108c-.923-1.966.513-5.075,2.09-6.645,1.281-1.276,1.88-.763,2.645-1.805,1.489-2.029-.566-4.259.2-6.989C7.538,1.8,14.094.567,14.366.519c.107-.019.179-.031.291-.048C17.6,0,22.054-.7,25.193,1.709a9.155,9.155,0,0,1,3.248,7.717,8.945,8.945,0,0,1-2.52,5.749,8.164,8.164,0,0,1-5.336,2.5c-1.515.014-1.82-.52-2.979-.19a6.214,6.214,0,0,0-3.17,2.789c-1.115,1.646-.662,2-1.464,2.807-1.572,1.586-3.416.34-5.095,1.74-1.655,1.38-.657,3.251-2.254,4.445C3.975,30.5.822,30.066.15,28.6-.427,27.34.806,25.267,1.4,25.316Z" transform="translate(946.961 342.822) rotate(-146)"/></g></svg>